<svg width="63" height="23" viewBox="0 0 63 23" fill="none" xmlns="http://www.w3.org/2000/svg">
<path d="M7.76 18.24C6.848 18.24 6.088 18.088 5.48 17.784C4.872 17.464 4.376 17.064 3.992 16.584V17.4C3.992 17.576 3.936 17.72 3.824 17.832C3.712 17.944 3.568 18 3.392 18H1.112C0.936 18 0.792 17.944 0.68 17.832C0.568 17.72 0.512 17.576 0.512 17.4V1.56C0.512 1.384 0.568 1.24 0.68 1.128C0.792 1.016 0.936 0.959999 1.112 0.959999H3.584C3.744 0.959999 3.88 1.016 3.992 1.128C4.104 1.24 4.16 1.384 4.16 1.56V6.792C4.56 6.344 5.056 5.984 5.648 5.712C6.24 5.424 6.944 5.28 7.76 5.28C8.592 5.28 9.312 5.424 9.92 5.712C10.544 5.984 11.072 6.376 11.504 6.888C11.936 7.384 12.264 7.976 12.488 8.664C12.728 9.352 12.856 10.112 12.872 10.944C12.888 11.232 12.896 11.504 12.896 11.76C12.896 12 12.888 12.272 12.872 12.576C12.84 13.424 12.704 14.2 12.464 14.904C12.24 15.592 11.912 16.192 11.48 16.704C11.064 17.2 10.544 17.584 9.92 17.856C9.312 18.112 8.592 18.24 7.76 18.24ZM6.68 15.36C7.288 15.36 7.768 15.232 8.12 14.976C8.472 14.704 8.72 14.352 8.864 13.92C9.024 13.488 9.12 13.016 9.152 12.504C9.184 12.008 9.184 11.512 9.152 11.016C9.12 10.504 9.024 10.032 8.864 9.6C8.72 9.168 8.472 8.824 8.12 8.568C7.768 8.296 7.288 8.16 6.68 8.16C6.104 8.16 5.632 8.288 5.264 8.544C4.912 8.8 4.64 9.128 4.448 9.528C4.272 9.912 4.176 10.328 4.16 10.776C4.144 11.064 4.136 11.36 4.136 11.664C4.136 11.968 4.144 12.272 4.16 12.576C4.192 13.056 4.288 13.504 4.448 13.92C4.608 14.336 4.872 14.68 5.24 14.952C5.608 15.224 6.088 15.36 6.68 15.36ZM16.2577 18C16.0977 18 15.9617 17.944 15.8497 17.832C15.7377 17.72 15.6817 17.576 15.6817 17.4V6.12C15.6817 5.944 15.7377 5.8 15.8497 5.688C15.9617 5.576 16.0977 5.52 16.2577 5.52H18.6577C18.8337 5.52 18.9777 5.576 19.0897 5.688C19.2017 5.8 19.2577 5.944 19.2577 6.12V17.4C19.2577 17.576 19.2017 17.72 19.0897 17.832C18.9777 17.944 18.8337 18 18.6577 18H16.2577ZM16.1857 3.6C16.0257 3.6 15.8897 3.544 15.7777 3.432C15.6657 3.32 15.6097 3.176 15.6097 3V1.08C15.6097 0.903999 15.6657 0.759999 15.7777 0.647999C15.8897 0.52 16.0257 0.456 16.1857 0.456H18.7057C18.8817 0.456 19.0257 0.52 19.1377 0.647999C19.2657 0.759999 19.3297 0.903999 19.3297 1.08V3C19.3297 3.176 19.2657 3.32 19.1377 3.432C19.0257 3.544 18.8817 3.6 18.7057 3.6H16.1857ZM23.1076 18C22.9316 18 22.7876 17.944 22.6756 17.832C22.5636 17.72 22.5076 17.576 22.5076 17.4V1.56C22.5076 1.384 22.5636 1.24 22.6756 1.128C22.7876 1.016 22.9316 0.959999 23.1076 0.959999H25.5076C25.6676 0.959999 25.8036 1.016 25.9156 1.128C26.0276 1.24 26.0836 1.384 26.0836 1.56V17.4C26.0836 17.576 26.0276 17.72 25.9156 17.832C25.8036 17.944 25.6676 18 25.5076 18H23.1076ZM29.957 22.56C29.781 22.56 29.637 22.504 29.525 22.392C29.413 22.28 29.357 22.136 29.357 21.96V6.12C29.357 5.944 29.413 5.8 29.525 5.688C29.637 5.576 29.781 5.52 29.957 5.52H32.237C32.413 5.52 32.557 5.576 32.669 5.688C32.781 5.8 32.837 5.944 32.837 6.12V7.032C33.221 6.52 33.717 6.104 34.325 5.784C34.933 5.448 35.693 5.28 36.605 5.28C37.437 5.28 38.157 5.416 38.765 5.688C39.389 5.944 39.909 6.32 40.325 6.816C40.757 7.296 41.085 7.88 41.309 8.568C41.549 9.256 41.685 10.032 41.717 10.896C41.733 11.2 41.741 11.488 41.741 11.76C41.741 12.032 41.733 12.328 41.717 12.648C41.701 13.464 41.573 14.216 41.333 14.904C41.109 15.592 40.781 16.184 40.349 16.68C39.917 17.176 39.389 17.56 38.765 17.832C38.157 18.104 37.437 18.24 36.605 18.24C35.789 18.24 35.077 18.096 34.469 17.808C33.877 17.504 33.389 17.096 33.005 16.584V21.96C33.005 22.136 32.949 22.28 32.837 22.392C32.725 22.504 32.589 22.56 32.429 22.56H29.957ZM35.525 15.36C36.133 15.36 36.613 15.232 36.965 14.976C37.317 14.704 37.565 14.352 37.709 13.92C37.869 13.488 37.965 13.016 37.997 12.504C38.029 12.008 38.029 11.512 37.997 11.016C37.965 10.504 37.869 10.032 37.709 9.6C37.565 9.168 37.317 8.824 36.965 8.568C36.613 8.296 36.133 8.16 35.525 8.16C34.933 8.16 34.453 8.296 34.085 8.568C33.717 8.84 33.453 9.184 33.293 9.6C33.133 10.016 33.037 10.464 33.005 10.944C32.989 11.232 32.981 11.528 32.981 11.832C32.981 12.136 32.989 12.44 33.005 12.744C33.021 13.192 33.117 13.616 33.293 14.016C33.485 14.4 33.757 14.72 34.109 14.976C34.477 15.232 34.949 15.36 35.525 15.36ZM50.2387 18.24C48.9107 18.24 47.7987 18.024 46.9027 17.592C46.0067 17.144 45.3187 16.512 44.8387 15.696C44.3747 14.88 44.1187 13.928 44.0707 12.84C44.0547 12.52 44.0467 12.16 44.0467 11.76C44.0467 11.344 44.0547 10.984 44.0707 10.68C44.1187 9.576 44.3907 8.624 44.8867 7.824C45.3827 7.008 46.0787 6.384 46.9747 5.952C47.8707 5.504 48.9587 5.28 50.2387 5.28C51.5027 5.28 52.5827 5.504 53.4787 5.952C54.3747 6.384 55.0707 7.008 55.5667 7.824C56.0627 8.624 56.3347 9.576 56.3827 10.68C56.4147 10.984 56.4307 11.344 56.4307 11.76C56.4307 12.16 56.4147 12.52 56.3827 12.84C56.3347 13.928 56.0707 14.88 55.5907 15.696C55.1267 16.512 54.4467 17.144 53.5507 17.592C52.6547 18.024 51.5507 18.24 50.2387 18.24ZM50.2387 15.6C51.0227 15.6 51.6147 15.36 52.0147 14.88C52.4147 14.384 52.6307 13.664 52.6627 12.72C52.6787 12.48 52.6867 12.16 52.6867 11.76C52.6867 11.36 52.6787 11.04 52.6627 10.8C52.6307 9.872 52.4147 9.16 52.0147 8.664C51.6147 8.168 51.0227 7.92 50.2387 7.92C49.4547 7.92 48.8547 8.168 48.4387 8.664C48.0387 9.16 47.8227 9.872 47.7907 10.8C47.7747 11.04 47.7667 11.36 47.7667 11.76C47.7667 12.16 47.7747 12.48 47.7907 12.72C47.8227 13.664 48.0387 14.384 48.4387 14.88C48.8547 15.36 49.4547 15.6 50.2387 15.6ZM59.3555 18C59.1795 18 59.0355 17.944 58.9235 17.832C58.8115 17.72 58.7555 17.576 58.7555 17.4V14.712C58.7555 14.536 58.8115 14.392 58.9235 14.28C59.0355 14.168 59.1795 14.112 59.3555 14.112H62.0435C62.2195 14.112 62.3635 14.168 62.4755 14.28C62.5875 14.392 62.6435 14.536 62.6435 14.712V17.4C62.6435 17.576 62.5875 17.72 62.4755 17.832C62.3635 17.944 62.2195 18 62.0435 18H59.3555Z" fill="#6D5ED7"/>
</svg>
