<svg width="24" height="15" viewBox="0 0 24 15" fill="none" xmlns="http://www.w3.org/2000/svg">
<g clip-path="url(#clip0_429_239)">
<path fill-rule="evenodd" clip-rule="evenodd" d="M11.7771 0C8.63631 0 6.67385 1.56092 5.88831 4.68277C7.06615 3.12185 8.44015 2.53662 10.0103 2.92662C10.9062 3.14908 11.5468 3.79523 12.2552 4.51062C13.41 5.67554 14.7466 7.02369 17.6654 7.02369C20.8057 7.02369 22.7686 5.46277 23.5537 2.34138C22.3763 3.90231 21.0023 4.48754 19.4322 4.09708C18.5358 3.87462 17.8952 3.22846 17.1868 2.51354C16.032 1.34769 14.6958 0 11.7771 0ZM5.88831 7.02369C2.748 7.02369 0.785077 8.58462 0 11.7065C1.17785 10.1455 2.55185 9.56031 4.12154 9.95031C5.01785 10.1728 5.65846 10.8189 6.36692 11.5343C7.52169 12.6992 8.85785 14.0474 11.7771 14.0474C14.9174 14.0474 16.8803 12.4869 17.6654 9.36508C16.4875 10.926 15.1135 11.5112 13.5434 11.1212C12.6475 10.8983 12.0069 10.2522 11.2985 9.53723C10.1437 8.37231 8.80708 7.02369 5.88831 7.02369V7.02369Z" fill="#38BDF8"/>
</g>
<defs>
<clipPath id="clip0_429_239">
<rect width="24" height="14.3077" fill="white"/>
</clipPath>
</defs>
</svg>
